# xmcd CD database file
#
# Track frame offsets:
#	150
#	100820
#	118824
#	167173
#	191420
#	210403
#	228649
#	250936
#	269582
#	289291
#	311916
#
# Disc length: 4557 seconds
#
# Revision: 3
# Processed by: cddbd v1.5.2PL0 Copyright (c) Steve Scherf et al.
# Submitted via: CDex 1.51
#
DISCID=a711cb0b
DTITLE=Thomas Adès - Tevot ~ Violin Concerto ~ Three Studies from Couperin ~ Powder Her Face
DYEAR=2010
DGENRE=Contemporain
TTITLE0=Tevot [2007]    (Sir Simon Rattle, Berliner Philharmoniker) 
TTITLE1=Violin Concerto 'Concentric Paths' [2005] - I. Rings    (Thomas Adès, Chamber Orchestra of Europe)
TTITLE2=Violin Concerto 'Concentric Paths' [2005] - II. Paths    (Anthony Marwood, violin)
TTITLE3=Violin Concerto 'Concentric Paths' [2005] - III. Rounds
TTITLE4=Three Studies from Couperin [2006] - I. Les Amusemens    (T.Adès, Chamber Orchestra of Europe)
TTITLE5=Three Studies from Couperin [2006] - II. Les Tours de passe-passe
TTITLE6=Three Studies from Couperin [2006] - III. L'Âme-en-peine
TTITLE7=Powder Her Face [2007] - I. Overture    (Paul Daniel, National Youth Orchestra of Great Britain)
TTITLE8=Powder Her Face [2007] - II. Waltz
TTITLE9=Powder Her Face [2007] - III. Finale
TTITLE10=DATA
EXTD=YEAR: 2010
EXTT0=
EXTT1=
EXTT2=
EXTT3=
EXTT4=
EXTT5=
EXTT6=
EXTT7=
EXTT8=
EXTT9=
EXTT10=
PLAYORDER=
